<mxfile host="app.diagrams.net" modified="2023-08-14T16:28:32.503Z" agent="Mozilla/5.0 (Windows NT 10.0; Win64; x64) AppleWebKit/537.36 (KHTML, like Gecko) Chrome/115.0.0.0 Safari/537.36" etag="46WC8AD2g7VlKOKd50Tq" version="21.6.8" type="github" pages="3">
  <diagram name="Page-1" id="8HZqVQ227J1Cgi2Up7n9">
    <mxGraphModel dx="1859" dy="574" grid="1" gridSize="10" guides="1" tooltips="1" connect="1" arrows="1" fold="1" page="1" pageScale="1" pageWidth="850" pageHeight="1100" background="none" math="0" shadow="0">
      <root>
        <mxCell id="0" />
        <mxCell id="1" parent="0" />
        <mxCell id="egdyQFt_vsPa5ktB0jVL-6" value="" style="rounded=0;whiteSpace=wrap;html=1;fillColor=#FFE6CC;strokeColor=none;fontColor=#ffffff;fontStyle=1" vertex="1" parent="1">
          <mxGeometry x="-10" y="205" width="780" height="150" as="geometry" />
        </mxCell>
        <mxCell id="egdyQFt_vsPa5ktB0jVL-12" style="edgeStyle=orthogonalEdgeStyle;rounded=0;orthogonalLoop=1;jettySize=auto;html=1;strokeColor=#ff8000;strokeWidth=2;" edge="1" parent="1" source="egdyQFt_vsPa5ktB0jVL-1" target="egdyQFt_vsPa5ktB0jVL-8">
          <mxGeometry relative="1" as="geometry" />
        </mxCell>
        <mxCell id="egdyQFt_vsPa5ktB0jVL-1" value="TokenGenerator" style="rounded=0;whiteSpace=wrap;html=1;fillColor=#FF8000;strokeColor=none;fontColor=#ffffff;fontStyle=1" vertex="1" parent="1">
          <mxGeometry x="290" y="250" width="120" height="60" as="geometry" />
        </mxCell>
        <mxCell id="egdyQFt_vsPa5ktB0jVL-4" value="&lt;h1&gt;Heading&lt;/h1&gt;&lt;p&gt;Lorem ipsum dolor sit amet, consectetur adipisicing elit, sed do eiusmod tempor incididunt ut labore et dolore magna aliqua.&lt;/p&gt;" style="text;html=1;strokeColor=none;fillColor=none;spacing=5;spacingTop=-20;whiteSpace=wrap;overflow=hidden;rounded=0;" vertex="1" parent="1">
          <mxGeometry x="40" y="10" width="190" height="120" as="geometry" />
        </mxCell>
        <mxCell id="egdyQFt_vsPa5ktB0jVL-8" value="PrivateKey" style="rounded=0;whiteSpace=wrap;html=1;fillColor=#FF8000;strokeColor=none;fontColor=#ffffff;fontStyle=1" vertex="1" parent="1">
          <mxGeometry x="530" y="250" width="120" height="60" as="geometry" />
        </mxCell>
        <mxCell id="egdyQFt_vsPa5ktB0jVL-13" value="" style="rounded=0;whiteSpace=wrap;html=1;fillColor=#CCFFFF;strokeColor=none;fontColor=#ffffff;fontStyle=1" vertex="1" parent="1">
          <mxGeometry x="-20" y="440" width="780" height="150" as="geometry" />
        </mxCell>
        <mxCell id="egdyQFt_vsPa5ktB0jVL-14" style="edgeStyle=orthogonalEdgeStyle;rounded=0;orthogonalLoop=1;jettySize=auto;html=1;strokeColor=#0066CC;strokeWidth=2;" edge="1" parent="1" source="egdyQFt_vsPa5ktB0jVL-15" target="egdyQFt_vsPa5ktB0jVL-16">
          <mxGeometry relative="1" as="geometry" />
        </mxCell>
        <mxCell id="egdyQFt_vsPa5ktB0jVL-15" value="ThisApplication" style="rounded=0;whiteSpace=wrap;html=1;fillColor=#0066CC;strokeColor=none;fontColor=#ffffff;fontStyle=1" vertex="1" parent="1">
          <mxGeometry x="60" y="485" width="120" height="60" as="geometry" />
        </mxCell>
        <mxCell id="egdyQFt_vsPa5ktB0jVL-16" value="ThisApplication" style="rounded=0;whiteSpace=wrap;html=1;fillColor=#0066CC;strokeColor=none;fontColor=#ffffff;fontStyle=1" vertex="1" parent="1">
          <mxGeometry x="340" y="485" width="120" height="60" as="geometry" />
        </mxCell>
      </root>
    </mxGraphModel>
  </diagram>
  <diagram id="YoNIYe_7S8YQ_p02LOJu" name="Page-2">
    <mxGraphModel dx="1050" dy="574" grid="1" gridSize="10" guides="1" tooltips="1" connect="1" arrows="1" fold="1" page="1" pageScale="1" pageWidth="850" pageHeight="1100" math="0" shadow="0">
      <root>
        <mxCell id="0" />
        <mxCell id="1" parent="0" />
        <mxCell id="1YxNpYVlBY2CcvN3boek-1" value="Central Idea" style="ellipse;whiteSpace=wrap;html=1;align=center;newEdgeStyle={&quot;edgeStyle&quot;:&quot;entityRelationEdgeStyle&quot;,&quot;startArrow&quot;:&quot;none&quot;,&quot;endArrow&quot;:&quot;none&quot;,&quot;segment&quot;:10,&quot;curved&quot;:1,&quot;sourcePerimeterSpacing&quot;:0,&quot;targetPerimeterSpacing&quot;:0};treeFolding=1;treeMoving=1;" vertex="1" parent="1">
          <mxGeometry x="370" y="280" width="100" height="40" as="geometry" />
        </mxCell>
        <mxCell id="1YxNpYVlBY2CcvN3boek-2" value="Mindmap" style="swimlane;startSize=20;horizontal=1;containerType=tree;" vertex="1" parent="1">
          <mxGeometry x="120" y="40" width="420" height="126" as="geometry" />
        </mxCell>
        <mxCell id="1YxNpYVlBY2CcvN3boek-3" value="" style="edgeStyle=entityRelationEdgeStyle;startArrow=none;endArrow=none;segment=10;curved=1;sourcePerimeterSpacing=0;targetPerimeterSpacing=0;rounded=0;" edge="1" parent="1YxNpYVlBY2CcvN3boek-2" source="1YxNpYVlBY2CcvN3boek-7" target="1YxNpYVlBY2CcvN3boek-8">
          <mxGeometry relative="1" as="geometry" />
        </mxCell>
        <mxCell id="1YxNpYVlBY2CcvN3boek-4" value="" style="edgeStyle=entityRelationEdgeStyle;startArrow=none;endArrow=none;segment=10;curved=1;sourcePerimeterSpacing=0;targetPerimeterSpacing=0;rounded=0;" edge="1" parent="1YxNpYVlBY2CcvN3boek-2" source="1YxNpYVlBY2CcvN3boek-7" target="1YxNpYVlBY2CcvN3boek-9">
          <mxGeometry relative="1" as="geometry" />
        </mxCell>
        <mxCell id="1YxNpYVlBY2CcvN3boek-5" value="" style="edgeStyle=entityRelationEdgeStyle;startArrow=none;endArrow=none;segment=10;curved=1;sourcePerimeterSpacing=0;targetPerimeterSpacing=0;rounded=0;" edge="1" parent="1YxNpYVlBY2CcvN3boek-2" source="1YxNpYVlBY2CcvN3boek-7" target="1YxNpYVlBY2CcvN3boek-10">
          <mxGeometry relative="1" as="geometry" />
        </mxCell>
        <mxCell id="1YxNpYVlBY2CcvN3boek-6" value="" style="edgeStyle=entityRelationEdgeStyle;startArrow=none;endArrow=none;segment=10;curved=1;sourcePerimeterSpacing=0;targetPerimeterSpacing=0;rounded=0;" edge="1" parent="1YxNpYVlBY2CcvN3boek-2" source="1YxNpYVlBY2CcvN3boek-7" target="1YxNpYVlBY2CcvN3boek-11">
          <mxGeometry relative="1" as="geometry" />
        </mxCell>
        <mxCell id="1YxNpYVlBY2CcvN3boek-7" value="Central Idea" style="ellipse;whiteSpace=wrap;html=1;align=center;treeFolding=1;treeMoving=1;newEdgeStyle={&quot;edgeStyle&quot;:&quot;entityRelationEdgeStyle&quot;,&quot;startArrow&quot;:&quot;none&quot;,&quot;endArrow&quot;:&quot;none&quot;,&quot;segment&quot;:10,&quot;curved&quot;:1,&quot;sourcePerimeterSpacing&quot;:0,&quot;targetPerimeterSpacing&quot;:0};" vertex="1" parent="1YxNpYVlBY2CcvN3boek-2">
          <mxGeometry x="160" y="60" width="100" height="40" as="geometry" />
        </mxCell>
        <mxCell id="1YxNpYVlBY2CcvN3boek-8" value="Topic" style="whiteSpace=wrap;html=1;rounded=1;arcSize=50;align=center;verticalAlign=middle;strokeWidth=1;autosize=1;spacing=4;treeFolding=1;treeMoving=1;newEdgeStyle={&quot;edgeStyle&quot;:&quot;entityRelationEdgeStyle&quot;,&quot;startArrow&quot;:&quot;none&quot;,&quot;endArrow&quot;:&quot;none&quot;,&quot;segment&quot;:10,&quot;curved&quot;:1,&quot;sourcePerimeterSpacing&quot;:0,&quot;targetPerimeterSpacing&quot;:0};" vertex="1" parent="1YxNpYVlBY2CcvN3boek-2">
          <mxGeometry x="320" y="40" width="80" height="20" as="geometry" />
        </mxCell>
        <mxCell id="1YxNpYVlBY2CcvN3boek-9" value="Branch" style="whiteSpace=wrap;html=1;shape=partialRectangle;top=0;left=0;bottom=1;right=0;points=[[0,1],[1,1]];fillColor=none;align=center;verticalAlign=bottom;routingCenterY=0.5;snapToPoint=1;autosize=1;treeFolding=1;treeMoving=1;newEdgeStyle={&quot;edgeStyle&quot;:&quot;entityRelationEdgeStyle&quot;,&quot;startArrow&quot;:&quot;none&quot;,&quot;endArrow&quot;:&quot;none&quot;,&quot;segment&quot;:10,&quot;curved&quot;:1,&quot;sourcePerimeterSpacing&quot;:0,&quot;targetPerimeterSpacing&quot;:0};" vertex="1" parent="1YxNpYVlBY2CcvN3boek-2">
          <mxGeometry x="320" y="80" width="72" height="26" as="geometry" />
        </mxCell>
        <mxCell id="1YxNpYVlBY2CcvN3boek-10" value="Topic" style="whiteSpace=wrap;html=1;rounded=1;arcSize=50;align=center;verticalAlign=middle;strokeWidth=1;autosize=1;spacing=4;treeFolding=1;treeMoving=1;newEdgeStyle={&quot;edgeStyle&quot;:&quot;entityRelationEdgeStyle&quot;,&quot;startArrow&quot;:&quot;none&quot;,&quot;endArrow&quot;:&quot;none&quot;,&quot;segment&quot;:10,&quot;curved&quot;:1,&quot;sourcePerimeterSpacing&quot;:0,&quot;targetPerimeterSpacing&quot;:0};" vertex="1" parent="1YxNpYVlBY2CcvN3boek-2">
          <mxGeometry x="20" y="40" width="80" height="20" as="geometry" />
        </mxCell>
        <mxCell id="1YxNpYVlBY2CcvN3boek-11" value="Branch" style="whiteSpace=wrap;html=1;shape=partialRectangle;top=0;left=0;bottom=1;right=0;points=[[0,1],[1,1]];fillColor=none;align=center;verticalAlign=bottom;routingCenterY=0.5;snapToPoint=1;autosize=1;treeFolding=1;treeMoving=1;newEdgeStyle={&quot;edgeStyle&quot;:&quot;entityRelationEdgeStyle&quot;,&quot;startArrow&quot;:&quot;none&quot;,&quot;endArrow&quot;:&quot;none&quot;,&quot;segment&quot;:10,&quot;curved&quot;:1,&quot;sourcePerimeterSpacing&quot;:0,&quot;targetPerimeterSpacing&quot;:0};" vertex="1" parent="1YxNpYVlBY2CcvN3boek-2">
          <mxGeometry x="20" y="80" width="72" height="26" as="geometry" />
        </mxCell>
      </root>
    </mxGraphModel>
  </diagram>
  <diagram id="-3f-wd3p116W184xuTm8" name="Page-3">
    <mxGraphModel dx="1009" dy="574" grid="1" gridSize="10" guides="1" tooltips="1" connect="1" arrows="1" fold="1" page="1" pageScale="1" pageWidth="850" pageHeight="1100" math="0" shadow="0">
      <root>
        <mxCell id="0" />
        <mxCell id="1" parent="0" />
        <mxCell id="eEj_0OjbAb9Ea5V1380Z-1" value="" style="sketch=0;points=[[0,0,0],[0.25,0,0],[0.5,0,0],[0.75,0,0],[1,0,0],[0,1,0],[0.25,1,0],[0.5,1,0],[0.75,1,0],[1,1,0],[0,0.25,0],[0,0.5,0],[0,0.75,0],[1,0.25,0],[1,0.5,0],[1,0.75,0]];outlineConnect=0;fontColor=#232F3E;gradientColor=#F78E04;gradientDirection=north;fillColor=#D05C17;strokeColor=#ffffff;dashed=0;verticalLabelPosition=bottom;verticalAlign=top;align=center;html=1;fontSize=12;fontStyle=0;aspect=fixed;shape=mxgraph.aws4.resourceIcon;resIcon=mxgraph.aws4.compute;" vertex="1" parent="1">
          <mxGeometry x="220" y="160" width="78" height="78" as="geometry" />
        </mxCell>
        <mxCell id="eEj_0OjbAb9Ea5V1380Z-2" value="" style="sketch=0;outlineConnect=0;fontColor=#232F3E;gradientColor=none;fillColor=#4D27AA;strokeColor=none;dashed=0;verticalLabelPosition=bottom;verticalAlign=top;align=center;html=1;fontSize=12;fontStyle=0;aspect=fixed;pointerEvents=1;shape=mxgraph.aws4.internet_gateway;" vertex="1" parent="1">
          <mxGeometry x="60" y="50" width="78" height="78" as="geometry" />
        </mxCell>
      </root>
    </mxGraphModel>
  </diagram>
</mxfile>
